<svg xmlns="http://www.w3.org/2000/svg" role="img" viewBox="0 0 64 64">
	<title>Sentinel Intelligence</title>
	<defs>
		<linearGradient id="sentinel-bg" x1="12" x2="52" y1="8" y2="58" gradientUnits="userSpaceOnUse">
			<stop stop-color="#2e4057" />
			<stop offset="1" stop-color="#172b4d" />
		</linearGradient>
		<linearGradient id="sentinel-shield" x1="20" x2="46" y1="14" y2="50" gradientUnits="userSpaceOnUse">
			<stop stop-color="#ffffff" />
			<stop offset="1" stop-color="#deebff" />
		</linearGradient>
		<linearGradient id="sentinel-core" x1="22" x2="42" y1="18" y2="48" gradientUnits="userSpaceOnUse">
			<stop stop-color="#4c9aff" />
			<stop offset="1" stop-color="#0052cc" />
		</linearGradient>
	</defs>
	<rect width="64" height="64" rx="14" fill="url(#sentinel-bg)" />
	<path fill="#0f1f2f" d="M32 9.5 50 16v13.7c0 11.4-7.3 19.6-18 24.8-10.7-5.2-18-13.4-18-24.8V16z" opacity=".35" />
	<path fill="url(#sentinel-shield)" d="M32 8.5 50 15v13.7c0 11.4-7.3 19.6-18 24.8-10.7-5.2-18-13.4-18-24.8V15z" />
	<path fill="url(#sentinel-core)" d="M32 14.2 44.5 19v9.8c0 8-4.8 14.2-12.5 18.4-7.7-4.2-12.5-10.4-12.5-18.4V19z" />
	<path fill="none" stroke="#deebff" stroke-linecap="round" stroke-linejoin="round" stroke-width="3.4" d="M23 33.4h6.1l2.8-8.3 4.2 16.2 3.7-10h5.2" />
	<path fill="none" stroke="#006644" stroke-linecap="round" stroke-linejoin="round" stroke-width="2" d="M23 33.4h6.1l2.8-8.3 4.2 16.2 3.7-10h5.2" />
	<path fill="none" stroke="#deebff" stroke-linecap="round" stroke-width="2" d="M23.2 24.3c2.3-3.1 5.3-4.7 8.8-4.7s6.5 1.6 8.8 4.7" opacity=".82" />
	<circle cx="46" cy="18" r="5.5" fill="#ffab00" />
	<circle cx="46" cy="18" r="2.2" fill="#fff8d6" />
</svg>